<?xml version="1.0" standalone="no"?>
<!DOCTYPE svg PUBLIC "-//W3C//DTD SVG 20010904//EN"
 "http://www.w3.org/TR/2001/REC-SVG-20010904/DTD/svg10.dtd">
<svg version="1.0" xmlns="http://www.w3.org/2000/svg"
 width="1502.000000pt" height="1499.000000pt" viewBox="0 0 1502.000000 1499.000000"
 preserveAspectRatio="xMidYMid meet">
<metadata>
Created by potrace 1.16, written by Peter Selinger 2001-2019
</metadata>
<g transform="translate(0.000000,1499.000000) scale(0.100000,-0.100000)"
fill="#000000" stroke="none">
<path d="M4385 5188 c-2 -7 -6 -37 -7 -67 l-3 -54 -52 -3 c-59 -3 -121 -33
-150 -73 -102 -138 -9 -321 163 -321 27 0 32 -4 38 -31 3 -17 6 -48 6 -68 0
-20 3 -46 6 -58 l6 -23 903 0 904 0 5 53 c4 28 7 75 9 102 2 49 2 50 33 48 48
-4 116 -37 154 -74 122 -122 84 -337 -74 -422 -41 -22 -44 -22 -628 -25 l-588
-3 0 -255 c0 -195 -3 -256 -12 -259 -7 -2 -39 -9 -70 -15 l-58 -11 0 -402 c1
-306 4 -411 14 -439 63 -175 310 -236 455 -112 23 20 52 55 64 78 22 40 22 49
25 458 l3 417 -61 13 -60 12 0 132 0 132 408 5 c373 4 414 7 486 26 92 25 203
79 265 129 55 44 115 137 136 207 31 107 14 276 -39 385 -72 149 -178 230
-360 274 l-91 23 -2 34 c-2 19 -6 71 -9 117 l-6 82 -904 0 c-715 0 -906 -3
-909 -12z m1665 -183 l0 -35 -755 0 -755 0 0 35 0 35 755 0 755 0 0 -35z"/>
<path d="M1610 4938 c-32 -16 -51 -35 -65 -63 -19 -39 -20 -65 -25 -895 -6
-918 -3 -869 -55 -970 -30 -58 -93 -116 -158 -146 -54 -25 -74 -28 -157 -28
-112 0 -162 18 -235 85 -68 62 -92 111 -130 263 -19 75 -40 145 -47 156 -36
57 -146 65 -199 14 -41 -39 -53 -83 -44 -166 18 -184 81 -337 182 -437 121
-120 245 -162 478 -162 234 0 358 41 484 157 56 52 79 83 111 147 79 162 75
104 75 1094 l0 882 -35 36 c-31 32 -81 55 -120 55 -9 0 -36 -10 -60 -22z"/>
<path d="M2484 4949 c-46 -13 -91 -69 -99 -121 -3 -24 -5 -506 -3 -1073 3
-973 4 -1032 21 -1063 37 -69 19 -67 737 -67 482 0 652 3 672 12 38 17 60 55
60 107 0 59 -15 84 -65 107 -40 17 -74 19 -579 19 l-537 0 -3 994 c-3 986 -3
995 -24 1023 -23 31 -98 73 -129 72 -11 0 -34 -5 -51 -10z"/>
<path d="M7685 4955 c-5 -2 -22 -6 -37 -9 -36 -8 -95 -60 -117 -105 -11 -20
-202 -490 -427 -1046 -367 -908 -408 -1016 -408 -1067 -1 -53 2 -60 35 -94 40
-40 85 -54 142 -43 75 13 82 26 232 417 l109 282 511 0 511 0 119 -296 c66
-162 129 -312 140 -331 30 -54 63 -74 123 -75 112 0 176 84 147 195 -13 49
-810 1958 -856 2049 -28 56 -46 76 -89 98 -35 18 -115 33 -135 25z m244 -888
c116 -290 211 -529 211 -532 0 -3 -189 -5 -421 -5 -333 0 -420 3 -416 13 3 6
88 228 190 492 212 550 219 567 222 563 2 -2 98 -240 214 -531z"/>
<path d="M9262 4953 c-12 -3 -40 -21 -61 -41 -30 -29 -41 -47 -45 -82 -4 -25
-6 -518 -4 -1097 3 -1051 3 -1052 24 -1080 65 -87 193 -87 258 0 l21 28 0
1089 c0 1083 0 1089 -21 1117 -23 32 -98 74 -129 72 -11 -1 -30 -4 -43 -6z"/>
<path d="M10163 4953 c-13 -2 -43 -23 -68 -46 -42 -38 -47 -48 -56 -107 -6
-40 -9 -454 -7 -1092 3 -1026 3 -1027 24 -1055 31 -42 77 -65 130 -65 51 0 83
18 118 66 21 27 21 32 18 904 -2 548 0 873 6 867 5 -5 256 -379 557 -830 588
-879 641 -955 680 -981 67 -44 177 -30 231 29 18 19 37 52 43 74 7 26 11 373
11 1081 0 1162 4 1089 -68 1134 -48 30 -118 30 -160 -1 -67 -47 -64 3 -62
-909 0 -455 3 -851 7 -879 3 -29 2 -53 -3 -53 -5 1 -276 401 -603 890 -327
489 -609 904 -626 923 -43 47 -102 64 -172 50z"/>
<path d="M12237 4908 c-45 -12 -87 -67 -87 -114 0 -47 38 -96 85 -110 27 -9
139 -13 347 -13 l308 -1 2 -994 c3 -993 3 -995 24 -1023 65 -87 193 -87 258 0
21 28 21 30 24 1022 l3 994 327 3 c247 2 333 6 350 16 31 18 62 71 62 106 0
36 -35 90 -70 108 -32 17 -1572 22 -1633 6z"/>
</g>
</svg>
